<svg xmlns="http://www.w3.org/2000/svg" viewBox="0 0 194 194"><defs><style>.cls-1{fill:#ff8e10;}.cls-2{fill:#fff;}</style></defs><title>Fichier 3</title><g id="Calque_2" data-name="Calque 2"><g id="Ombre"><path class="cls-1" d="M26.56,163.64A100.73,100.73,0,0,1,8.68,137a97.12,97.12,0,0,1-4.32-11.17A109.23,109.23,0,0,1,0,97a97,97,0,1,1,97,97c-14.41,0-28.84-4.36-28.84-4.36a96.86,96.86,0,0,1-38.94-23.26C28.81,166,27.83,165,26.56,163.64Z"/><path class="cls-2" d="M115.1,63.12c2.5,15.88,15.77,6.73,25.14,10.43a1.5,1.5,0,0,1,.92,1.41c0,14.94.23,30.72-.32,46.47-.07,2-4.46,5.41-6.89,5.46-24,.41-48.07.48-72.09-.09-2.47-.06-6.75-4.76-6.92-7.51-.76-12.32,0-24.73-.46-37.09-.26-7.31,2.19-10.28,9.71-9.89,7,.36,15.32,2.61,17.34-8.31.19-1,3.51-2,5.4-2.08,8.72-.2,17.45-.11,26.64-.1A1.55,1.55,0,0,1,115.1,63.12ZM97.3,125.6c9.9,0,19.81-.27,29.7.08,8.89.31,13.11-3.22,12.74-12.39-.34-8.47,0-17-.08-25.45-.07-12.3-1.59-13.7-14.3-13.86-5.29-.07-10.4,1.25-13.14-6.44-2.11-5.94-25-6.94-27.53-1.07-4.1,9.47-11.39,6.23-17.89,7.9-4,1-9.69,5.38-10.13,8.81-1.33,10.44-.9,21.18-.32,31.75.38,7.1,4,11.39,12.33,10.82C78.18,125.1,87.76,125.6,97.3,125.6Z"/><path class="cls-2" d="M54.38,45.5a1.55,1.55,0,0,1,.22,3.07,12.07,12.07,0,0,0-2.74,1c-2.56,1.3-4.08,4.64-5.23,7.9a1.55,1.55,0,0,1-3-.39C42.89,48.8,44.58,44.92,54.38,45.5Z"/><path class="cls-2" d="M43.74,132c-2.69,12.72,10.78,8.86,23,8.7a1.56,1.56,0,0,1,.45,3.05C49.36,149.16,42.81,143.2,43.74,132Z"/><path class="cls-2" d="M151.23,53.32a1.56,1.56,0,0,1-2.9,1.06,10.63,10.63,0,0,0-3.62-4.62c-4.49-2.86-11.55-1.67-17.77-1.8a1.56,1.56,0,0,1-1.54-1.56v0A1.56,1.56,0,0,1,127,44.82c7.35.26,15.72-1,21,2.4C149.69,48.29,150.6,50.49,151.23,53.32Z"/><path class="cls-2" d="M125.42,142.57a1.54,1.54,0,0,1,1.49-1.59c6.26-.16,13.25.94,18-1.83,1.61-.94,2.74-2.73,3.66-4.93a1.55,1.55,0,0,1,3,.83c-.38,3-1.06,5.4-2.61,6.26-6,3.33-14.27,2.49-21.82,3a1.55,1.55,0,0,1-1.67-1.51Z"/><path class="cls-1" d="M97.3,125.6c-9.55,0-19.13-.5-28.63.15-8.35.58-11.94-3.72-12.33-10.82-.57-10.58-1-21.31.32-31.75.44-3.43,6.11-7.78,10.13-8.81,6.5-1.67,13.8,1.57,17.89-7.9,2.54-5.87,25.42-4.87,27.53,1.07,2.73,7.69,7.84,6.37,13.14,6.44,12.71.16,14.23,1.56,14.3,13.86,0,8.49-.26,17,.08,25.45.37,9.17-3.85,12.7-12.74,12.39C117.11,125.34,107.2,125.6,97.3,125.6ZM78,99.39c-.09,13,7.6,21.07,20.49,21.38,10.3.25,20.81-10,21.16-20.61S109.43,78.9,98.15,78.82C86.12,78.73,78.09,86.93,78,99.39Z"/><path class="cls-2" d="M78,99.39c.09-12.47,8.12-20.66,20.15-20.57,11.28.08,21.86,10.59,21.5,21.34S108.79,121,98.49,120.77C85.6,120.46,77.91,112.43,78,99.39Zm19.47,17.06c8.25.26,16.92-7.55,17.31-15.61.37-7.65-7.41-15.46-15.63-15.7-8.85-.26-15.85,6.22-16,14.81C83,109.19,89,116.19,97.47,116.46Z"/><path class="cls-1" d="M97.47,116.46C89,116.19,83,109.19,83.14,100c.16-8.6,7.16-15.07,16-14.81,8.22.24,16,8,15.63,15.7C114.39,108.9,105.73,116.72,97.47,116.46Zm-1-3.93,3.29,0a1.54,1.54,0,0,0,1.22-.62c3.2-4.18,8.66-8.73,8.08-12.3-.66-4.08-7.3-9.6-11.66-9.91-3.48-.25-10.35,6.3-10.45,10-.1,4,5.06,8.18,8.28,12.29A1.55,1.55,0,0,0,96.48,112.52Z"/><path class="cls-2" d="M96.48,112.52a1.55,1.55,0,0,1-1.23-.6C92,107.81,86.86,103.66,87,99.64c.1-3.67,7-10.21,10.45-10,4.36.31,11,5.83,11.66,9.91.58,3.57-4.88,8.12-8.08,12.3a1.54,1.54,0,0,1-1.22.62Z"/><path class="cls-2" d="M116.1,63.12c2.5,15.88,15.77,6.73,25.14,10.43a1.5,1.5,0,0,1,.92,1.41c0,14.94.23,30.72-.32,46.47-.07,2-4.46,5.41-6.89,5.46-24,.41-48.07.48-72.09-.09-2.47-.06-6.75-4.76-6.92-7.51-.76-12.32,0-24.73-.46-37.09-.26-7.31,2.19-10.28,9.71-9.89,7,.36,15.32,2.61,17.34-8.31.19-1,3.51-2,5.4-2.08,8.72-.2,17.45-.11,26.64-.1A1.55,1.55,0,0,1,116.1,63.12ZM98.3,125.6c9.9,0,19.81-.27,29.7.08,8.89.31,13.11-3.22,12.74-12.39-.34-8.47,0-17-.08-25.45-.07-12.3-1.59-13.7-14.3-13.86-5.29-.07-10.4,1.25-13.14-6.44-2.11-5.94-25-6.94-27.53-1.07-4.1,9.47-11.39,6.23-17.89,7.9-4,1-9.69,5.38-10.13,8.81-1.33,10.44-.9,21.18-.32,31.75.38,7.1,4,11.39,12.33,10.82C79.18,125.1,88.76,125.6,98.3,125.6Z"/><path class="cls-2" d="M55.38,45.5a1.55,1.55,0,0,1,.22,3.07,12.07,12.07,0,0,0-2.74,1c-2.56,1.3-4.08,4.64-5.23,7.9a1.55,1.55,0,0,1-3-.39C43.89,48.8,45.58,44.92,55.38,45.5Z"/><path class="cls-2" d="M44.74,132c-2.69,12.72,10.78,8.86,23,8.7a1.56,1.56,0,0,1,.45,3.05C50.36,149.16,43.81,143.2,44.74,132Z"/><path class="cls-2" d="M152.23,53.32a1.56,1.56,0,0,1-2.9,1.06,10.63,10.63,0,0,0-3.62-4.62c-4.49-2.86-11.55-1.67-17.77-1.8a1.56,1.56,0,0,1-1.54-1.56v0A1.56,1.56,0,0,1,128,44.82c7.35.26,15.72-1,21,2.4C150.69,48.29,151.6,50.49,152.23,53.32Z"/><path class="cls-2" d="M126.42,142.57a1.54,1.54,0,0,1,1.49-1.59c6.26-.16,13.25.94,18-1.83,1.61-.94,2.74-2.73,3.66-4.93a1.55,1.55,0,0,1,3,.83c-.38,3-1.06,5.4-2.61,6.26-6,3.33-14.27,2.49-21.82,3a1.55,1.55,0,0,1-1.67-1.51Z"/><path class="cls-2" d="M79,99.39c.09-12.47,8.12-20.66,20.15-20.57,11.28.08,21.86,10.59,21.5,21.34S109.79,121,99.49,120.77C86.6,120.46,78.91,112.43,79,99.39Zm19.47,17.06c8.25.26,16.92-7.55,17.31-15.61.37-7.65-7.41-15.46-15.63-15.7-8.85-.26-15.85,6.22-16,14.81C84,109.19,90,116.19,98.47,116.46Z"/><path class="cls-2" d="M97.48,112.52a1.55,1.55,0,0,1-1.23-.6C93,107.81,87.86,103.66,88,99.64c.1-3.67,7-10.21,10.45-10,4.36.31,11,5.83,11.66,9.91.58,3.57-4.88,8.12-8.08,12.3a1.54,1.54,0,0,1-1.22.62Z"/></g></g></svg>