<svg xmlns="http://www.w3.org/2000/svg" viewBox="0 0 194 194"><defs><style>.cls-1{fill:#ff8e10;}.cls-2{fill:#fff;}</style></defs><title>Fichier 2</title><g id="Calque_2" data-name="Calque 2"><g id="Ombre"><path class="cls-1" d="M26.56,163.64A100.73,100.73,0,0,1,8.68,137a97.12,97.12,0,0,1-4.32-11.17A109.23,109.23,0,0,1,0,97a97,97,0,1,1,97,97c-14.41,0-28.84-4.36-28.84-4.36a96.86,96.86,0,0,1-38.94-23.26C28.81,166,27.83,165,26.56,163.64Z"/><path class="cls-2" d="M97,143.08q-15.43,0-30.86,0a14.45,14.45,0,0,1-2.74-.26,3.48,3.48,0,0,1-3-3c-2.55-12.72-5.15-25.44-7.72-38.16A2.94,2.94,0,0,1,54.86,98a5.88,5.88,0,0,1,1.9-.33q34.66-.19,69.32-.34c3.72,0,7.45.21,11.17.32,3.24.1,4.55,1.66,3.92,4.78-2.51,12.4-5,24.8-7.54,37.2a3.71,3.71,0,0,1-3.17,3.22,14.84,14.84,0,0,1-2.74.25Q112.38,143.1,97,143.08Z"/><path class="cls-2" d="M114.38,79.08c.17-2.6.45-5,.45-7.43,0-3.76-.09-3.69-3.59-4.92A66.75,66.75,0,0,1,88.05,53.05q-.66-.6-1.34-1.18a2.05,2.05,0,0,0-.5-.16c-6.49,8-7.92,17.2-6.68,27.26-.27-.41-.57-.8-.8-1.23A42.61,42.61,0,0,1,73.2,60.09c-.76-10.14,4.12-17.52,13.86-20.34a34.89,34.89,0,0,1,21.26.41c8.2,2.78,12.83,9.51,12.63,18.24A41,41,0,0,1,115,78.24,8.88,8.88,0,0,1,114.38,79.08Z"/></g></g></svg>