<svg xmlns="http://www.w3.org/2000/svg" viewBox="0 0 194 194"><defs><style>.cls-1{fill:#ff8e10;}.cls-2{fill:#fff;}</style></defs><title>Fichier 5</title><g id="Calque_2" data-name="Calque 2"><g id="Ombre"><path class="cls-1" d="M26.56,163.64A100.73,100.73,0,0,1,8.68,137a97.12,97.12,0,0,1-4.32-11.17A109.23,109.23,0,0,1,0,97,97,97,0,0,1,97,0c48.24,0,97,35.43,97,97a97,97,0,0,1-97,97c-14.41,0-28.84-4.36-28.84-4.36a96.86,96.86,0,0,1-38.94-23.26C28.81,166,27.83,165,26.56,163.64Z"/><path class="cls-2" d="M81.31,135H47.81c-2.16,0-2.3-.14-2.31-2.23q0-36.76,0-73.53c0-2,.23-2.21,2.21-2.21h98.62c2.1,0,2.29.2,2.29,2.28q0,36.76,0,73.53c0,2-.12,2.15-2.2,2.15h-33.6l1.81,12.79h3.44c2.18,0,2.65.49,2.67,2.6,0,1.33-.08,2.67,0,4s-.48,1.69-1.75,1.68c-5.75-.05-11.51,0-17.26,0-8.79,0-17.58,0-26.37,0-1.49,0-2.15-.32-2-1.93a36.61,36.61,0,0,0,0-4.15,1.89,1.89,0,0,1,2.12-2.19h.32c3.7-.09,3.71-.09,4.23-3.74C80.5,141.11,80.88,138.16,81.31,135Zm15.59-6.29c14.65,0,29.3,0,43.95,0,1.46,0,1.89-.39,1.89-1.86q-.06-30.84,0-61.68c0-1.46-.41-1.88-1.89-1.88q-43.79.06-87.58,0c-1.47,0-1.9.41-1.9,1.88q.06,30.84,0,61.68c0,1.5.46,1.86,1.9,1.85C67.81,128.69,82.36,128.71,96.9,128.71Z"/></g></g></svg>